#!OML:ASF H:\Dans Jumps\Project 1\Capture day 1\Session 1\subject.ASF
:FULLY-SPECIFIED
:DEGREES
554
root 0.683472 17.6102 2.76055 7.80225 -0.491618 -0.848038
lowerback -2.43818 -0.327186 -0.841127
upperback 1.16602 -0.449109 1.7309
thorax 2.58497 -0.253909 2.22995
lowerneck -12.6395 0.436948 -1.60807
upperneck 19.7128 0.95623 -0.0368052
head 8.18919 0.328549 0.358069
rclavicle 8.44835e-016 -2.78299e-014
rhumerus -29.9577 -24.5694 -75.4264
rradius 18.7061
rwrist 44.2514
rhand -18.6377 -26.0883
rfingers 7.12502
rthumb 7.65481 -55.9298
lclavicle 8.44835e-016 -2.78299e-014
lhumerus -25.7427 5.60987 87.7097
lradius 12.2906
lwrist -2.13201
lhand -24.5653 -4.95575
lfingers 7.12502
lthumb 1.93138 25.0153
rfemur -14.2404 -2.46403 19.2244
rtibia 25.3486
rfoot -16.8139 -2.35662
rtoes 5.61193
lfemur -13.2239 6.65917 -18.1245
ltibia 22.0284
lfoot -12.7895 6.08879
ltoes -4.45051
555
root 0.682438 17.6097 2.76308 7.7926 -0.499994 -0.82463
lowerback -2.44943 -0.326614 -0.862823
upperback 1.16763 -0.447375 1.72169
thorax 2.59298 -0.253405 2.23269
lowerneck -12.6527 0.447446 -1.60432
upperneck 19.6816 0.971283 -0.0430136
head 8.18106 0.335562 0.356922
rclavicle 6.80837e-015 -1.39149e-014
rhumerus -29.9819 -24.5927 -75.4133
rradius 18.7129
rwrist 44.2048
rhand -18.6503 -26.1091
rfingers 7.12502
rthumb 7.6427 -55.951
lclavicle 6.80837e-015 -1.39149e-014
lhumerus -25.7636 5.52651 87.7691
lradius 12.345
lwrist -1.99044
lhand -24.5281 -4.84237
lfingers 7.12502
lthumb 1.9673 25.1283
rfemur -14.2421 -2.43764 19.2033
rtibia 25.3872
rfoot -16.8626 -2.42518
rtoes 5.37553
lfemur -13.1951 6.66268 -18.1461
ltibia 22.0153
lfoot -12.7934 6.09888
ltoes -4.45315
556
root 0.681238 17.6091 2.76565 7.77862 -0.502055 -0.809123
lowerback -2.45854 -0.328134 -0.875714
upperback 1.17269 -0.448798 1.71349
thorax 2.60342 -0.254382 2.2314
lowerneck -12.6694 0.458809 -1.59784
upperneck 19.6524 0.986957 -0.0489298
head 8.17424 0.343077 0.355505
rclavicle 6.31141e-015 -1.55052e-014
rhumerus -29.9949 -24.612 -75.41
rradius 18.7196
rwrist 44.1614
rhand -18.6715 -26.1432
rfingers 7.12502
rthumb 7.62219 -55.9858
lclavicle 6.31141e-015 -1.55052e-014
lhumerus -25.7774 5.42829 87.8321
lradius 12.4234
lwrist -1.80208
lhand -24.4774 -4.65225
lfingers 7.12502
lthumb 2.01631 25.318
rfemur -14.2341 -2.41247 19.1912
rtibia 25.4188
rfoot -16.9043 -2.48266
rtoes 5.1785
lfemur -13.1645 6.66696 -18.1566
ltibia 22.0069
lfoot -12.8014 6.10139
ltoes -4.44862
557
root 0.679914 17.6085 2.76827 7.76155 -0.497392 -0.798397
lowerback -2.46486 -0.332311 -0.884774
upperback 1.17851 -0.45396 1.70751
thorax 2.61323 -0.257182 2.23006
lowerneck -12.6788 0.469078 -1.59358
upperneck 19.619 1.00129 -0.0543413
head 8.16468 0.34989 0.354438
rclavicle 2.38542e-015 4.77083e-015
rhumerus -30.0019 -24.628 -75.4097
rradius 18.7262
rwrist 44.1265
rhand -18.6954 -26.1809
rfingers 7.12502
rthumb 7.59913 -56.0244
lclavicle 2.38542e-015 4.77083e-015
lhumerus -25.7903 5.33348 87.8939
lradius 12.503
lwrist -1.62089
lhand -24.4308 -4.48236
lfingers 7.12502
lthumb 2.06128 25.4874
rfemur -14.2185 -2.39091 19.1849
rtibia 25.4444
rfoot -16.9392 -2.53202
rtoes 5.01202
lfemur -13.1328 6.67325 -18.1603
ltibia 22.0008
lfoot -12.8111 6.09508
ltoes -4.44052
558
root 0.678531 17.608 2.77085 7.74433 -0.485753 -0.795674
lowerback -2.47264 -0.338447 -0.884827
upperback 1.18611 -0.462119 1.70344
thorax 2.62577 -0.261374 2.22548
lowerneck -12.6875 0.478131 -1.59074
upperneck 19.5838 1.01367 -0.0571685
head 8.15443 0.355944 0.354249
rclavicle -9.64106e-015 1.19271e-015
rhumerus -29.9999 -24.6408 -75.4156
rradius 18.7336
rwrist 44.0952
rhand -18.7217 -26.2294
rfingers 7.12502
rthumb 7.57377 -56.0738
lclavicle -9.64106e-015 1.19271e-015
lhumerus -25.7991 5.26093 87.9441
lradius 12.5625
lwrist -1.49926
lhand -24.4192 -4.42879
lfingers 7.12502
lthumb 2.07249 25.5409
rfemur -14.1994 -2.37437 19.1879
rtibia 25.4655
rfoot -16.9687 -2.57379
rtoes 4.87592
lfemur -13.1022 6.67976 -18.154
ltibia 21.9941
lfoot -12.821 6.08143
ltoes -4.4324
559
root 0.677237 17.6076 2.77349 7.73378 -0.470151 -0.785753
lowerback -2.48713 -0.346 -0.896131
upperback 1.19105 -0.471788 1.70145
thorax 2.63954 -0.266526 2.22927
lowerneck -12.6839 0.485475 -1.58507
upperneck 19.5399 1.02451 -0.0683103
head 8.1391 0.360746 0.350576
rclavicle 4.47266e-016 -1.51076e-014
rhumerus -29.9949 -24.654 -75.4144
rradius 18.7424
rwrist 44.0777
rhand -18.7468 -26.2475
rfingers 7.12502
rthumb 7.54954 -56.0928
lclavicle 4.47266e-016 -1.51076e-014
lhumerus -25.8089 5.22277 87.9877
lradius 12.5881
lwrist -1.47633
lhand -24.4532 -4.52419
lfingers 7.12502
lthumb 2.03964 25.4458
rfemur -14.1856 -2.36854 19.183
rtibia 25.4834
rfoot -16.9927 -2.60449
rtoes 4.7669
lfemur -13.079 6.68305 -18.1568
ltibia 21.9854
lfoot -12.827 6.06681
ltoes -4.42898
560
root 0.67606 17.6073 2.77629 7.72644 -0.451586 -0.769156
lowerback -2.50597 -0.354863 -0.914281
upperback 1.19393 -0.482926 1.69928
thorax 2.65376 -0.272518 2.23663
lowerneck -12.6803 0.492016 -1.58629
upperneck 19.5022 1.03445 -0.0732407
head 8.1258 0.365188 0.350045
rclavicle -2.33572e-015 -7.95139e-016
rhumerus -29.9885 -24.6638 -75.4107
rradius 18.7523
rwrist 44.0674
rhand -18.77 -26.2653
rfingers 7.12502
rthumb 7.52717 -56.1114
lclavicle -2.33572e-015 -7.95139e-016
lhumerus -25.8143 5.18412 88.0348
lradius 12.616
lwrist -1.44564
lhand -24.4142 -4.47786
lfingers 7.12502
lthumb 2.07734 25.4918
rfemur -14.1719 -2.37342 19.1703
rtibia 25.4973
rfoot -17.0133 -2.62485
rtoes 4.68834
lfemur -13.0589 6.68513 -18.1681
ltibia 21.976
lfoot -12.8335 6.05002
ltoes -4.42603
561
root 0.675048 17.6071 2.77918 7.72029 -0.429918 -0.75639
lowerback -2.52575 -0.36318 -0.926216
upperback 1.19606 -0.493558 1.69778
thorax 2.66769 -0.278149 2.24119
lowerneck -12.6826 0.497171 -1.58669
upperneck 19.4727 1.04209 -0.0762661
head 8.11631 0.368719 0.349819
rclavicle -9.29318e-015 7.95139e-015
rhumerus -29.9804 -24.6808 -75.4046
rradius 18.7637
rwrist 44.065
rhand -18.7914 -26.2785
rfingers 7.12502
rthumb 7.50648 -56.1253
lclavicle -9.29318e-015 7.95139e-015
lhumerus -25.8133 5.138 88.0855
lradius 12.6541
lwrist -1.38482
lhand -24.3262 -4.32444
lfingers 7.12502
lthumb 2.16237 25.6443
rfemur -14.1564 -2.38856 19.1615
rtibia 25.5073
rfoot -17.0291 -2.63591
rtoes 4.64323
lfemur -13.0398 6.68594 -18.176
ltibia 21.9658
lfoot -12.839 6.0331
ltoes -4.43372
562
root 0.67407 17.607 2.78214 7.71626 -0.406062 -0.752401
lowerback -2.54521 -0.370766 -0.928787
upperback 1.19522 -0.503594 1.69906
thorax 2.67828 -0.283294 2.24339
lowerneck -12.6855 0.501629 -1.59101
upperneck 19.4503 1.04859 -0.0740841
head 8.10926 0.371882 0.351881
rclavicle 8.49804e-015 3.97569e-015
rhumerus -29.9751 -24.6928 -75.3974
rradius 18.7792
rwrist 44.058
rhand -18.8114 -26.287
rfingers 7.12502
rthumb 7.48717 -56.1345
lclavicle 8.49804e-015 3.97569e-015
lhumerus -25.8092 5.08516 88.1394
lradius 12.6968
lwrist -1.30527
lhand -24.2 -4.09051
lfingers 7.12502
lthumb 2.28417 25.877
rfemur -14.139 -2.40719 19.1626
rtibia 25.511
rfoot -17.0391 -2.64165
rtoes 4.64248
lfemur -13.0241 6.68616 -18.1745
ltibia 21.958
lfoot -12.8461 6.01621
ltoes -4.44641
563
root 0.673152 17.6069 2.78514 7.71393 -0.380791 -0.751921
lowerback -2.56476 -0.377361 -0.926568
upperback 1.19288 -0.512485 1.70106
thorax 2.6873 -0.287765 2.24368
lowerneck -12.6904 0.504817 -1.5978
upperneck 19.4331 1.05314 -0.0680304
head 8.1043 0.374285 0.355463
rclavicle 5.06901e-015 -1.11319e-014
rhumerus -29.9695 -24.7039 -75.3906
rradius 18.7973
rwrist 44.0423
rhand -18.828 -26.2945
rfingers 7.12502
rthumb 7.47121 -56.1425
lclavicle 5.06901e-015 -1.11319e-014
lhumerus -25.8018 5.02508 88.1954
lradius 12.7443
lwrist -1.20913
lhand -24.0967 -3.8843
lfingers 7.12502
lthumb 2.384 26.0821
rfemur -14.12 -2.42998 19.1677
rtibia 25.5081
rfoot -17.041 -2.64195
rtoes 4.67622
lfemur -13.0122 6.68544 -18.1696
ltibia 21.9544
lfoot -12.8547 6.00038
ltoes -4.46547
564
root 0.672236 17.6069 2.78815 7.71295 -0.357315 -0.757385
lowerback -2.58317 -0.382243 -0.917473
upperback 1.18862 -0.519346 1.70381
thorax 2.69353 -0.291071 2.24099
lowerneck -12.6954 0.507897 -1.60146
upperneck 19.4198 1.0572 -0.0633706
head 8.10066 0.376517 0.358023
rclavicle -2.03754e-015 1.59028e-014
rhumerus -29.9636 -24.7099 -75.3861
rradius 18.8172
rwrist 44.0183
rhand -18.8412 -26.2939
rfingers 7.12502
rthumb 7.45843 -56.1425
lclavicle -2.03754e-015 1.59028e-014
lhumerus -25.791 4.96694 88.248
lradius 12.7819
lwrist -1.1262
lhand -24.0413 -3.77378
lfingers 7.12502
lthumb 2.43744 26.192
rfemur -14.1002 -2.45053 19.1795
rtibia 25.4996
rfoot -17.0342 -2.64041
rtoes 4.72967
lfemur -13.0031 6.6849 -18.1585
ltibia 21.9544
lfoot -12.8637 5.98749
ltoes -4.48552
565
root 0.671288 17.607 2.79112 7.7127 -0.337888 -0.765279
lowerback -2.59896 -0.385172 -0.905982
upperback 1.18234 -0.523676 1.70658
thorax 2.69607 -0.293026 2.23709
lowerneck -12.6989 0.509941 -1.60635
upperneck 19.4092 1.05956 -0.0561715
head 8.09766 0.378083 0.361455
rclavicle 7.20594e-015 -2.18663e-014
rhumerus -29.9569 -24.7091 -75.3843
rradius 18.8367
rwrist 43.9848
rhand -18.8451 -26.292
rfingers 7.12502
rthumb 7.45465 -56.1407
lclavicle 7.20594e-015 -2.18663e-014
lhumerus -25.7791 4.90467 88.299
lradius 12.8117
lwrist -1.05373
lhand -24.0114 -3.72631
lfingers 7.12502
lthumb 2.46631 26.2392
rfemur -14.0808 -2.46433 19.1939
rtibia 25.4884
rfoot -17.0211 -2.6392
rtoes 4.80894
lfemur -12.9947 6.68432 -18.145
ltibia 21.9549
lfoot -12.8724 5.97854
ltoes -4.49669
566
root 0.670386 17.607 2.79415 7.71225 -0.323369 -0.774604
lowerback -2.61548 -0.385898 -0.891629
upperback 1.17739 -0.52517 1.70864
thorax 2.70023 -0.293531 2.231
lowerneck -12.7033 0.51064 -1.60881
upperneck 19.3969 1.06002 -0.0512044
head 8.09429 0.378717 0.363535
rclavicle -2.88238e-015 9.54166e-015
rhumerus -29.944 -24.701 -75.3882
rradius 18.8555
rwrist 43.939
rhand -18.8388 -26.2913
rfingers 7.12502
rthumb 7.46078 -56.1397
lclavicle -2.88238e-015 9.54166e-015
lhumerus -25.7625 4.83605 88.3489
lradius 12.8336
lwrist -0.991252
lhand -24.0106 -3.73758
lfingers 7.12502
lthumb 2.46716 26.2279
rfemur -14.0614 -2.47386 19.2093
rtibia 25.4762
rfoot -17.0042 -2.637
rtoes 4.90065
lfemur -12.9845 6.68393 -18.1304
ltibia 21.9536
lfoot -12.8796 5.97432
ltoes -4.5022
